<?xml version="1.0" standalone="no"?>
<!DOCTYPE svg PUBLIC "-//W3C//DTD SVG 20010904//EN"
 "http://www.w3.org/TR/2001/REC-SVG-20010904/DTD/svg10.dtd">
<svg version="1.0" xmlns="http://www.w3.org/2000/svg"
 width="260.000000pt" height="260.000000pt" viewBox="0 0 260.000000 260.000000"
 preserveAspectRatio="xMidYMid meet">
<metadata>
Created by potrace 1.11, written by Peter Selinger 2001-2013
</metadata>
<g transform="translate(0.000000,260.000000) scale(0.100000,-0.100000)"
fill="#000000" stroke="none">
<path d="M849 2571 c-36 -37 -38 -79 -5 -118 22 -25 31 -28 105 -31 l81 -4 -2
-171 -3 -170 -65 -22 c-36 -12 -80 -29 -97 -38 -36 -19 -30 -24 -117 100 -63
91 -97 123 -132 123 -24 0 -210 -121 -278 -181 -63 -56 -58 -79 46 -227 l86
-122 -45 -67 c-79 -119 -136 -256 -164 -398 -19 -94 -16 -310 5 -403 24 -108
77 -241 132 -333 57 -94 180 -230 272 -299 128 -98 309 -174 474 -200 109 -18
311 -8 415 19 494 129 828 581 799 1083 -11 187 -76 382 -176 529 -22 32 -40
64 -40 69 0 6 35 61 79 123 43 62 82 122 85 134 14 45 -19 84 -149 175 -69 48
-136 90 -150 94 -46 12 -77 -13 -154 -121 -41 -58 -78 -105 -83 -105 -5 0 -25
7 -46 16 -20 9 -62 24 -92 34 l-55 18 -3 171 -2 171 78 0 c70 0 82 3 106 25
36 33 37 95 1 130 l-24 25 -426 0 -427 0 -29 -29z m451 -731 c0 -39 -4 -50
-16 -50 -8 0 -29 -13 -45 -29 l-29 -29 0 -258 0 -257 -34 -38 c-74 -82 -68
-193 14 -263 63 -52 148 -56 217 -9 43 29 30 34 221 -75 197 -114 201 -115
218 -101 35 29 16 46 -176 155 l-190 108 0 54 c0 64 -22 115 -62 145 l-28 21
0 261 c0 246 -1 262 -20 282 -10 12 -28 24 -40 28 -16 5 -20 15 -20 56 l0 49
34 0 c55 0 176 -26 251 -55 253 -95 446 -312 515 -580 29 -111 29 -289 0 -400
-89 -346 -379 -596 -730 -631 l-70 -7 0 49 c0 44 3 51 30 66 24 14 30 24 30
53 0 34 -27 75 -50 75 -6 0 -11 66 -12 173 l-2 172 -3 -170 -3 -170 -30 -17
c-38 -21 -48 -60 -25 -94 9 -15 26 -29 36 -31 15 -4 19 -15 19 -54 l0 -49 -38
0 c-21 0 -65 5 -98 11 -330 58 -588 296 -675 624 -29 112 -29 288 0 400 63
239 225 442 436 547 97 49 233 85 328 87 l47 1 0 -50z"/>
<path d="M599 1102 c-48 -40 -17 -122 46 -122 63 0 91 74 45 120 -25 25 -61
26 -91 2z"/>
<path d="M1915 1095 c-48 -47 -19 -115 48 -115 66 0 93 78 41 119 -35 27 -59
26 -89 -4z"/>
</g>
</svg>
